<?xml version="1.0" encoding="utf-8"?>
<!-- Generator: Adobe Illustrator 21.1.0, SVG Export Plug-In . SVG Version: 6.00 Build 0)  -->
<svg version="1.1" id="Camada_1" xmlns="http://www.w3.org/2000/svg" xmlns:xlink="http://www.w3.org/1999/xlink" x="0px" y="0px"
	 viewBox="0 0 503.3 595.3" style="enable-background:new 0 0 503.3 595.3;" xml:space="preserve">
<style type="text/css">
	.st0{fill:#FFFFFF;}
</style>
<g>
	<g>
		<rect x="226.7" y="38.9" class="st0" width="24.9" height="24.9"/>
		<rect x="251.6" class="st0" width="38.9" height="38.9"/>
		<path class="st0" d="M491.4,391.3c-0.1-0.1-0.2-0.2-0.3-0.4l-0.4-0.4c-0.2-0.2-0.4-0.4-0.5-0.5L278.4,178.3L417.9,38.9h-53.6
			L251.6,151.5L138.9,38.9H85.3l139.5,139.5L12.2,391c-0.3,0.3-0.5,0.5-0.7,0.8c0,0.1-0.1,0.1-0.1,0.2c-0.2,0.2-0.4,0.4-0.5,0.6
			C4.1,400.3,0,410.3,0,421.3c0,24.2,19.6,43.9,43.9,43.9c0.5,0,1,0,1.5,0c0.2,0,0.5,0,0.7,0h414.3c0.3,0,0.7,0,1-0.1
			c0.1,0,0.3,0,0.4,0c0.2,0,0.4,0,0.6,0c22.8-1.6,40.8-20.6,40.8-43.7C503.3,409.7,498.7,399.2,491.4,391.3z M251.6,317.8v28.9
			h-28.9v38.5h17.6v17.6h-17.6v-17.6h-38.5v-38.5h38.5v-28.9H139l112.7-112.7l112.7,112.7H251.6z"/>
	</g>
	<g>
		<path class="st0" d="M0.8,517.2h15c12,0,21.7,1.6,31.1,9.6c9.1,7.8,13.2,18.5,13.2,30.4c0,11.6-4.2,21.9-13,29.7
			c-9.5,8.5-19,10.1-31.5,10.1H0.8V517.2z M16.1,588.7c9.7,0,17.9-1.4,25.2-8.3c6.6-6.1,9.9-14.5,9.9-23.4c0-9.1-3.5-17.9-10.4-23.9
			c-7.3-6.5-15.3-7.7-24.8-7.7H9.7v63.3L16.1,588.7L16.1,588.7z"/>
		<path class="st0" d="M114.9,597H106v-71.5H86.7v-8.3h47.6v8.3h-19.5V597H114.9z"/>
		<path class="st0" d="M160,517.2h10.2l16.3,30.1l16.3-30.1H213l-21.6,38.5L215,597h-10.2l-18.3-32.8L168.1,597h-10.2l23.6-41.3
			L160,517.2z"/>
		<path class="st0" d="M312.5,583.4h22V597h-37.6v-79.8h15.6V583.4z"/>
		<path class="st0" d="M376.9,580.2l-6.6,16.8h-16.4l31.1-81.9h12.1l30.3,81.9h-16.6l-6.1-16.8H376.9z M390.3,538.5h-0.2l-8.8,29
			h18.9L390.3,538.5z"/>
		<path class="st0" d="M453.3,517.2h19.4c14.8,0,23.9,5.8,23.9,21.7c0,5.7-2,12.3-7,15.5c9.4,1.7,13.7,11.2,13.7,20
			c0,15.7-11,22.6-25.5,22.6h-24.4v-79.8H453.3z M468.9,550.4h1.9c7.6,0,11.3-2.2,11.3-10.5c0-8.1-4.7-10.3-11.2-10.3h-2
			L468.9,550.4L468.9,550.4z M468.9,584.5h3.3c8.4,0,15.6-1.1,15.6-11.4c0-10.4-8.5-10.8-16.3-10.8H469v22.2H468.9z"/>
	</g>
</g>
</svg>
